<svg width="28" height="29" viewBox="0 0 28 29" fill="none" xmlns="http://www.w3.org/2000/svg">
<path d="M25.4684 0.580078H21.9601C20.8776 0.580078 20 1.47078 20 2.56959V6.1305C20 7.22931 20.8776 8.12008 21.9601 8.12008H25.4684C26.551 8.12008 27.4286 7.22931 27.4286 6.1305V2.56959C27.4286 1.47078 26.551 0.580078 25.4684 0.580078Z" fill="white"/>
<path opacity="0.5" d="M11.7292 8.3323H14.8099C16.0847 8.40584 17.2974 8.91561 18.2501 9.77853L18.3656 9.90886C19.2202 10.873 19.7231 12.1055 19.7904 13.4006V16.5145C19.7904 17.057 20.0028 17.5773 20.3807 17.9609C20.7587 18.3446 21.2713 18.5601 21.8058 18.5601H25.4128C25.9473 18.5601 26.4599 18.3446 26.8379 17.9609C27.2158 17.5773 27.4282 17.057 27.4282 16.5145V12.8534C27.4282 12.3109 27.2158 11.7906 26.8379 11.407C26.4599 11.0234 25.9473 10.8079 25.4128 10.8079H22.3449C21.069 10.7395 19.8547 10.229 18.9047 9.36162L18.7764 9.24435C17.9245 8.27848 17.422 7.04702 17.3515 5.75258V2.62562C17.3515 2.08315 17.1392 1.56283 16.7613 1.17922C16.3833 0.795607 15.8707 0.580078 15.3362 0.580078H11.7292C11.1947 0.580078 10.6821 0.795607 10.3042 1.17922C9.92621 1.56283 9.71387 2.08315 9.71387 2.62562V6.28681C9.71387 6.82929 9.92621 7.34955 10.3042 7.73316C10.6821 8.11677 11.1947 8.3323 11.7292 8.3323Z" fill="white"/>
<path d="M25.9909 21.1508H22.9391C21.6688 21.0671 20.4651 20.5322 19.5313 19.6362L19.188 19.2807C18.3415 18.3061 17.8433 17.0602 17.7766 15.7511V12.5903C17.7732 12.0431 17.5618 11.5191 17.1882 11.1321C16.8145 10.7451 16.3086 10.5261 15.7802 10.5227H12.7284C11.4685 10.4678 10.2653 9.96556 9.32063 9.10037L8.97731 8.74478C8.13074 7.7702 7.63257 6.52436 7.56583 5.21524V2.0677C7.56583 1.51931 7.35549 0.993367 6.98114 0.605579C6.60674 0.217849 6.09897 0 5.56948 0H1.99634C1.46691 0 0.959086 0.217849 0.584743 0.605579C0.210343 0.993367 0 1.51931 0 2.0677V5.76839C0 6.31678 0.210343 6.84272 0.584743 7.23045C0.959086 7.61824 1.46691 7.83609 1.99634 7.83609H5.03543C6.31868 7.89687 7.54154 8.41835 8.49411 9.31109L8.83743 9.66668C9.68131 10.643 10.1791 11.8878 10.2489 13.1962V16.357C10.2522 16.9043 10.4636 17.4282 10.8373 17.8152C11.2109 18.2022 11.7168 18.4211 12.2452 18.4246H15.297C16.547 18.5057 17.7341 19.0206 18.6667 19.8865L19.01 20.2421C19.8539 21.2184 20.3517 22.4632 20.4214 23.7716V26.9324C20.4247 27.4797 20.6362 28.0036 21.0098 28.3906C21.3835 28.7776 21.8894 28.9965 22.4178 29H26.0036C26.5321 28.9965 27.0379 28.7776 27.4116 28.3906C27.7853 28.0036 27.9967 27.4797 28 26.9324V23.2184C27.9966 22.6689 27.7835 22.1429 27.4071 21.7556C27.0307 21.3682 26.5215 21.1507 25.9909 21.1508Z" fill="white"/>
<path d="M5.88908 20.8799H2.11091C0.945085 20.8799 0 21.7706 0 22.8695V26.4304C0 27.5292 0.945085 28.4199 2.11091 28.4199H5.88908C7.05491 28.4199 8 27.5292 8 26.4304V22.8695C8 21.7706 7.05491 20.8799 5.88908 20.8799Z" fill="white"/>
<path opacity="0.5" d="M15.699 20.6682H12.631C11.3551 20.5998 10.1408 20.0894 9.19086 19.222L9.06251 19.1047C8.2052 18.132 7.70234 16.8904 7.63766 15.5869V12.4599C7.63131 11.9331 7.42491 11.429 7.06143 11.0527C6.69794 10.6765 6.20543 10.4572 5.68651 10.4404H2.01531C1.4808 10.4404 0.968227 10.656 0.590284 11.0396C0.212341 11.4232 0 11.9434 0 12.486V16.1471C0 16.6896 0.212341 17.2099 0.590284 17.5936C0.968227 17.9772 1.4808 18.1927 2.01531 18.1927H5.09606C6.37086 18.2662 7.58354 18.776 8.53623 19.6389L8.65177 19.7691C9.50634 20.7333 10.0093 21.9658 10.0766 23.2609V26.3748C10.0766 26.6446 10.1291 26.9116 10.2312 27.1606C10.3333 27.4097 10.4829 27.6357 10.6714 27.8259C10.8599 28.016 11.0836 28.1664 11.3296 28.2684C11.5756 28.3704 11.839 28.4221 12.1047 28.4204H15.699C16.2334 28.4204 16.7461 28.2049 17.124 27.8213C17.5019 27.4377 17.7143 26.9174 17.7143 26.3748V22.7137C17.7143 22.1712 17.5019 21.6509 17.124 21.2673C16.7461 20.8837 16.2334 20.6682 15.699 20.6682Z" fill="white"/>
</svg>
