<svg width="157" height="38" viewBox="0 0 157 38" fill="none" xmlns="http://www.w3.org/2000/svg">
<path d="M48.7031 28.9062C49.1927 28.9062 49.6615 28.8542 50.1094 28.75C50.5573 28.6354 50.9531 28.4635 51.2969 28.2344C51.6406 28.0052 51.9167 27.7135 52.125 27.3594C52.3333 27.0052 52.4375 26.5833 52.4375 26.0938C52.4375 25.5104 52.2917 25.0156 52 24.6094C51.7083 24.2031 51.3177 23.849 50.8281 23.5469C50.349 23.2344 49.8021 22.9531 49.1875 22.7031C48.5729 22.4427 47.9427 22.1771 47.2969 21.9062C46.6615 21.625 46.0365 21.3177 45.4219 20.9844C44.8177 20.6406 44.2708 20.2292 43.7812 19.75C43.3021 19.2708 42.9167 18.7031 42.625 18.0469C42.3333 17.3802 42.1875 16.5885 42.1875 15.6719C42.1875 14.6198 42.3906 13.6719 42.7969 12.8281C43.2031 11.974 43.7812 11.25 44.5312 10.6562C45.2812 10.0625 46.1823 9.60417 47.2344 9.28125C48.2969 8.95833 49.4792 8.79688 50.7812 8.79688C51.1354 8.79688 51.5469 8.8125 52.0156 8.84375C52.4948 8.86458 53.0052 8.90625 53.5469 8.96875C54.0885 9.03125 54.6458 9.11458 55.2188 9.21875C55.7917 9.32292 56.3542 9.45312 56.9062 9.60938L56.1094 13.2812L55.8281 13.4062C55.3385 13.1875 54.849 13.0052 54.3594 12.8594C53.8802 12.7031 53.4115 12.5781 52.9531 12.4844C52.5052 12.3802 52.0833 12.3073 51.6875 12.2656C51.2917 12.224 50.9427 12.2031 50.6406 12.2031C49.6406 12.2031 48.8385 12.4167 48.2344 12.8438C47.6406 13.2708 47.3438 13.8958 47.3438 14.7188C47.3438 15.3021 47.4896 15.7969 47.7812 16.2031C48.0729 16.599 48.4583 16.9531 48.9375 17.2656C49.4271 17.5781 49.9792 17.8646 50.5938 18.125C51.2083 18.375 51.8333 18.6406 52.4688 18.9219C53.1146 19.2031 53.7448 19.5104 54.3594 19.8438C54.974 20.1771 55.5208 20.5833 56 21.0625C56.4896 21.5417 56.8802 22.1094 57.1719 22.7656C57.4635 23.4115 57.6094 24.1875 57.6094 25.0938C57.6094 26.1562 57.401 27.1302 56.9844 28.0156C56.5677 28.8906 55.9688 29.651 55.1875 30.2969C54.4167 30.9323 53.4792 31.4271 52.375 31.7812C51.2812 32.1354 50.0469 32.3125 48.6719 32.3125C48.1615 32.3125 47.6094 32.2812 47.0156 32.2188C46.4219 32.1667 45.8073 32.0833 45.1719 31.9688C44.5469 31.8542 43.9115 31.7031 43.2656 31.5156C42.6198 31.3281 41.9948 31.099 41.3906 30.8281L42.2031 27.1406L42.5156 26.9844C43.1094 27.2656 43.6771 27.526 44.2188 27.7656C44.7604 28.0052 45.2812 28.2083 45.7812 28.375C46.2917 28.5417 46.7865 28.6719 47.2656 28.7656C47.7448 28.8594 48.224 28.9062 48.7031 28.9062ZM61.875 32V9.10938H67.3906V18.4688H76.875V9.10938H82.3906V32H76.875V21.875H67.3906V32H61.875ZM99.9062 26.7031H92.125L90.6406 32H86.0312L93.3125 9.10938H99.9688L107.234 32H101.406L99.9062 26.7031ZM99.0469 23.5312L96.9375 16L96.1562 12.5625H95.8438L95.0781 16L92.9688 23.5312H99.0469ZM116.078 9.10938V23.6719C116.078 24.5573 116.193 25.3281 116.422 25.9844C116.661 26.6406 116.984 27.1875 117.391 27.625C117.797 28.0521 118.266 28.375 118.797 28.5938C119.339 28.8021 119.917 28.9062 120.531 28.9062C121.156 28.9062 121.734 28.7969 122.266 28.5781C122.807 28.3594 123.276 28.0365 123.672 27.6094C124.068 27.1719 124.38 26.6354 124.609 26C124.839 25.3542 124.953 24.6042 124.953 23.75V9.10938H129.328V23.1719C129.328 24.4427 129.125 25.6354 128.719 26.75C128.323 27.8542 127.719 28.8177 126.906 29.6406C126.104 30.4635 125.099 31.1146 123.891 31.5938C122.682 32.0729 121.276 32.3125 119.672 32.3125C118.276 32.3125 117.016 32.125 115.891 31.75C114.766 31.375 113.807 30.8177 113.016 30.0781C112.234 29.3385 111.63 28.4219 111.203 27.3281C110.776 26.224 110.562 24.9427 110.562 23.4844V9.10938H116.078ZM134.828 32V9.10938H142.328L149.938 21.6094L151.641 25.0156H151.953L151.781 21.1875V9.10938H156.172V32H150.438L140.953 16.5312L139.359 13.2812H139.047L139.219 16.875V32H134.828Z" fill="white"/>
<path d="M25.4684 4.58008H21.9601C20.8776 4.58008 20 5.47078 20 6.56959V10.1305C20 11.2293 20.8776 12.1201 21.9601 12.1201H25.4684C26.551 12.1201 27.4286 11.2293 27.4286 10.1305V6.56959C27.4286 5.47078 26.551 4.58008 25.4684 4.58008Z" fill="white"/>
<path opacity="0.5" d="M11.7292 12.3323H14.8099C16.0847 12.4058 17.2974 12.9156 18.2501 13.7785L18.3656 13.9089C19.2202 14.873 19.7231 16.1055 19.7904 17.4006V20.5145C19.7904 21.057 20.0028 21.5773 20.3807 21.9609C20.7587 22.3446 21.2713 22.5601 21.8058 22.5601H25.4128C25.9473 22.5601 26.4599 22.3446 26.8379 21.9609C27.2158 21.5773 27.4282 21.057 27.4282 20.5145V16.8534C27.4282 16.3109 27.2158 15.7906 26.8379 15.407C26.4599 15.0234 25.9473 14.8079 25.4128 14.8079H22.3449C21.069 14.7395 19.8547 14.229 18.9047 13.3616L18.7764 13.2444C17.9245 12.2785 17.422 11.047 17.3515 9.75258V6.62562C17.3515 6.08315 17.1392 5.56283 16.7613 5.17922C16.3833 4.79561 15.8707 4.58008 15.3362 4.58008H11.7292C11.1947 4.58008 10.6821 4.79561 10.3042 5.17922C9.92621 5.56283 9.71387 6.08315 9.71387 6.62562V10.2868C9.71387 10.8293 9.92621 11.3495 10.3042 11.7332C10.6821 12.1168 11.1947 12.3323 11.7292 12.3323Z" fill="white"/>
<path d="M25.9909 25.1508H22.9391C21.6688 25.0671 20.4651 24.5322 19.5313 23.6362L19.188 23.2807C18.3415 22.3061 17.8433 21.0602 17.7766 19.7511V16.5903C17.7732 16.0431 17.5618 15.5191 17.1882 15.1321C16.8145 14.7451 16.3086 14.5261 15.7802 14.5227H12.7284C11.4685 14.4678 10.2653 13.9656 9.32063 13.1004L8.97731 12.7448C8.13074 11.7702 7.63257 10.5244 7.56583 9.21524V6.0677C7.56583 5.51931 7.35549 4.99337 6.98114 4.60558C6.60674 4.21785 6.09897 4 5.56948 4H1.99634C1.46691 4 0.959086 4.21785 0.584743 4.60558C0.210343 4.99337 0 5.51931 0 6.0677V9.76839C0 10.3168 0.210343 10.8427 0.584743 11.2305C0.959086 11.6182 1.46691 11.8361 1.99634 11.8361H5.03543C6.31868 11.8969 7.54154 12.4184 8.49411 13.3111L8.83743 13.6667C9.68131 14.643 10.1791 15.8878 10.2489 17.1962V20.357C10.2522 20.9043 10.4636 21.4282 10.8373 21.8152C11.2109 22.2022 11.7168 22.4211 12.2452 22.4246H15.297C16.547 22.5057 17.7341 23.0206 18.6667 23.8865L19.01 24.2421C19.8539 25.2184 20.3517 26.4632 20.4214 27.7716V30.9324C20.4247 31.4797 20.6362 32.0036 21.0098 32.3906C21.3835 32.7776 21.8894 32.9965 22.4178 33H26.0036C26.5321 32.9965 27.0379 32.7776 27.4116 32.3906C27.7853 32.0036 27.9967 31.4797 28 30.9324V27.2184C27.9966 26.6689 27.7835 26.1429 27.4071 25.7556C27.0307 25.3682 26.5215 25.1507 25.9909 25.1508Z" fill="white"/>
<path d="M5.88908 24.8799H2.11091C0.945085 24.8799 0 25.7706 0 26.8695V30.4304C0 31.5292 0.945085 32.4199 2.11091 32.4199H5.88908C7.05491 32.4199 8 31.5292 8 30.4304V26.8695C8 25.7706 7.05491 24.8799 5.88908 24.8799Z" fill="white"/>
<path opacity="0.5" d="M15.699 24.6682H12.631C11.3551 24.5998 10.1408 24.0894 9.19086 23.222L9.06251 23.1047C8.2052 22.132 7.70234 20.8904 7.63766 19.5869V16.4599C7.63131 15.9331 7.42491 15.429 7.06143 15.0527C6.69794 14.6765 6.20543 14.4572 5.68651 14.4404H2.01531C1.4808 14.4404 0.968227 14.656 0.590284 15.0396C0.212341 15.4232 0 15.9434 0 16.486V20.1471C0 20.6896 0.212341 21.2099 0.590284 21.5936C0.968227 21.9772 1.4808 22.1927 2.01531 22.1927H5.09606C6.37086 22.2662 7.58354 22.776 8.53623 23.6389L8.65177 23.7691C9.50634 24.7333 10.0093 25.9658 10.0766 27.2609V30.3748C10.0766 30.6446 10.1291 30.9116 10.2312 31.1606C10.3333 31.4097 10.4829 31.6357 10.6714 31.8259C10.8599 32.016 11.0836 32.1664 11.3296 32.2684C11.5756 32.3704 11.839 32.4221 12.1047 32.4204H15.699C16.2334 32.4204 16.7461 32.2049 17.124 31.8213C17.5019 31.4377 17.7143 30.9174 17.7143 30.3748V26.7137C17.7143 26.1712 17.5019 25.6509 17.124 25.2673C16.7461 24.8837 16.2334 24.6682 15.699 24.6682Z" fill="white"/>
</svg>
